<svg xmlns="http://www.w3.org/2000/svg" width="600" height="317.95"><path fill="#fff" d="M576.64 28.3l-10.18 12.37c-2.9 3.43-71.64 82.97-162.4 82.97-92.73 0-144.8-31.65-147-33l-3.46-2.26h-71.14V71.36c0-6.28-2.28-11.76-6.4-15.5C171.4 51.6 165.96 51 163.2 51h-12.73l-1.23-1.62c-5.37-7.07-12.7-10.82-21.16-10.82-18.46 0-29.5 17.1-29.5 33.64 0 3.9 1 8 2 11.5l1.43 5.16H83.4V79.9l-4.75-4.14c-8.14-7.18-22.7-10.4-35.36-.5 0 0-3.5 2.7-5.4 4.13v6.7l-2.6 1c-10.1 4.1-18.2 10.5-23.2 18.6-2.7 4.2-4.8 9-6.1 14-2.2 7.9-2.6 15.8-2.7 23.1v1.7c0 9.4 1.4 17.2 4.3 24.3l2.5 5.3-2.47 5c-3.4 8.2-5.2 17.7-5.2 28.4 0 11.9 2.6 22.9 7.7 32.8l1.15 2.2-1.4 2c-6.2 8.8-9.5 18.2-9.9 28v2.05c0 13.8 5.7 24.6 17 31.9 13.2 8.5 28.6 10.8 37.8 11.4-4.83-6.7-11.75-17.72-16.04-31.5l-.88-6.4c0-5.5 2.1-10.5 6.3-15v.1c.6-.82 1.5-1.7 2.4-2.73.1-.08 5.9-6 5.9-6 3.1-2.73 7.9-6.95 11.2-13.12 3.3-6.14 4.5-12.7 5.2-18.3l.9-14.96c0-7.8-.9-14.96-2.9-21.63-1.7-5.6-4.35-10.8-8.1-16.02l.2.1c-.35-.4-.7-.7-1.1-1.3l-1.6-2 .7-2.76 1.5-3.2 9.4 1.3s15.4 0 21.1-.02v-15.6h52v19.97c0 3.82.96 7.32 2.76 10.4 3.4 5.75 9.46 9.06 16.6 9.06h17.8l-2.53 17.1c0 6.3 1.47 11.6 4.4 15.7 3.96 5.6 10.16 8.8 17.5 8.8 7.4 0 13.65-3.15 17.6-8.8 2.83-4.1 4.23-9.17 4.23-15.2 0-4.8-.9-10.23-2.64-15.7l-.2-.6.1-20.2c0-5.25-2.4-10-7.3-14l-8.6-7.2h14.8l1.04.6c57.4 37.8 128 49.7 177.15 53.1 14.9 1 27.9 1 39.75-.1 1.07-.04 90.7-5.27 139.3-87.7C597.9 71.7 600 17.33 600 .1V0c-5.3 6.45-23.36 28.3-23.36 28.3"/><path fill="#fff" d="M31.98 202.97c0-8.4 2.2-12 3.72-13.64 2.56 3 5.33 14.25 5.33 26.08 0 6.9-2.23 12.1-3.82 14.2-2-3.1-5.2-12.1-5.2-26.6m-.5-63.8c0-4.2.8-7 1.8-9.2.3 2 .5 4.5.5 8.2 0 4.6-.5 9.6-1.2 13.7-.6-3.1-1-7.2-1-12.6m118-56.7v13.5l-.5.7h-10.2c4.9-3.5 7.6-9.03 8.9-14.2h1.8zM126 72.9c0-3.97 1.05-5.74 1.96-6.6.9.93 1.9 2.74 1.9 6.6 0 3.8-.97 5.77-1.9 6.9-1-1.1-1.95-3-1.95-6.9"/><path d="M35.22 182.2s-9.36 2.6-9.36 20.77c0 18.14 5.18 33.7 10.92 33.7 5.7 0 10.34-10.87 10.34-21.26 0-10.3-2.6-33.2-11.9-33.2m-1.57-62.7s-8.3 4.7-8.3 19.8c0 15.1 3.1 25.4 7.8 25.4 4.64 0 6.73-18.1 6.73-26.4 0-8.3-1.05-18.63-6.23-18.63m94.43-60.2s-8.3 1.06-8.3 13.5c0 12.47 8.3 14 8.3 14s7.8-2.06 7.8-14c0-11.93-7.8-13.5-7.8-13.5m28 51.4v17.6l7.8 4.7V106l-7.8 4.7zM27.8 296.5s-14.58-4.44-13.82-23.4c.75-18.8 15.53-29.18 15.53-29.18s-13-11.4-13-36.3c0-7.86 1.2-15.87 4.2-23.15 1.1-2.7 2.5-5.2 4.3-7.53.9-1.12 1.7-2.46 1.5-3.9-.2-1.55-1.7-2.53-2.7-3.68-1.4-1.73-2.4-3.75-3.3-5.84-2.6-6.46-3.3-13.48-3.2-20.4.1-6.57.5-13.35 2.2-19.7 1-3.57 2.5-7.14 4.5-10.3 5-7.98 13.3-13.17 22.3-15.3.3-.04 5.7-1 5.7-.68v-10.9c9.4-7.28 17.7 0 17.7 0v13.5l2.6 3.1H152l3.62-4.66V78.96c0-2.34-2-2.6-2-2.6h-10.97S141.57 94 128.6 94s-16.1-15.04-16.1-21.78c0-6.74 4.15-19.72 15.58-19.72 11.4 0 13.66 12.48 13.66 12.48h21.42s5.38-.55 5.38 6.38v30.94h80.94s53.94 35.3 154.58 35.3c100.64 0 173.26-88.2 173.26-88.2s-6.56 42.72-37 70.38l12.12-.36c-28.38 30.98-47.06 25.1-47.06 25.1 6.24 6.2 15.22 4.83 15.22 4.83-21.42 18.36-53.26 18-53.26 18 5.52 3.46 15.22 5.5 15.22 5.5-23.94 10.75-40.2 13.2-50.48 12.88-30.62-.94-44.96-13.56-44.96-13.56 4.14 9.7 11.75 16.27 11.75 16.27-124.5-12.48-179-54.23-179-54.23h-49l-2.84 2.9v25s-.3 2 1.8 2h27.95s5 .2 5 5.3v22.7s8.8 23.9-5.2 23.9-5.17-24.8-5.17-24.8v-14.7c0-2.2-1.9-1.9-1.9-1.9h-30c-5.8 0-5.3-5.62-5.3-5.62v-30.2l-3.1-3.7H75.2v15.57h-7.8c-11.94 0-14-16.07-14-16.07h-5.2c.32 0-.4 8-.44 8.6-.43 4.7-.47 9.4-1.87 13.94-1.4 4.4-4.4 8.1-6 12.44-1 2.55.4 3.53 2.4 4.8 1.3.95 2.5 2.3 3.6 3.55 3.6 4.13 6.1 9.2 7.6 14.4 1.7 5.8 2.3 11.9 2.3 17.9 0 4.27-.2 8.6-.7 12.9-.6 4.6-1.5 9.4-3.7 13.58-2.1 3.8-5.2 6.64-8.4 9.46-3.3 2.84-6.1 6.2-9.1 9.33-18.08 19.2-6.34 41.1-6.34 41.1"/><path fill="#fff" d="M225.43 128.18c6.06 3.72 55.14 36.3 155.5 49.58 0 0-4.34-6.6-2.1-17.77 0 0 11.32 6.7 20.9 10.3 6.7 2.5 17.28 6.7 32.6 7.2 5.88.1 15.2-.9 28.1-5-4.23-2.6-12.7-12.7-12.7-12.7l19.73-.8c.72 0 17.73-.2 34-7.5l-.26-.6c-5.77-4.08-4.4-13.75-4.4-13.75 7.62.5 16.3-1.2 16.3-1.2 3.93-.8 9.78-2.9 17.1-8l-11.65.36 16.3-14.8c11.28-10.3 18.92-22.87 24.22-34.34-18.03 16.2-45.17 36.6-78.96 50.52l-.5.2c-22.5 9.2-47.9 15.55-75.4 15.55-13.4 0-25.9-.64-37.6-1.7l-.8-.08c-69.7-6.44-109.8-28.3-118.36-33.45h-45.6v7.8h10.7s6.4 5.74 13.13 9.88"/></svg>