<svg xmlns="http://www.w3.org/2000/svg" width="600" height="705.49"><path fill="#fff" d="M299.97 705.5c-5.04 0-9.86-2.02-13.37-5.67L99.76 508.63c-6.62-6.8-7.16-17.42-1.24-24.8l8.96-11.22L6.08 379C2.2 375.4 0 370.4 0 365.2c0-89.6 34.45-174.3 99.47-245 48.86-53.1 97.43-79.6 99.42-80.7 2.8-1.5 5.8-2.2 8.8-2.2 5.2 0 10.4 2.13 14 6.33 5.72 6.48 6.2 16.13 1.16 23.24-.76 1.1-80.33 114.43-80.33 248 0 89.24 23.3 142.5 62.3 142.5 18.03 0 28.8-10.83 28.8-28.82 0-32.1-40.94-33.4-45.6-33.4-5.94-.08-11.5-2.9-15.04-7.74-3.46-4.7-4.57-10.8-2.77-16.5l111.9-357.8c2.46-7.8 9.7-13.1 17.9-13.1 8.12 0 15.37 5.3 17.84 13.1l111.7 357.6c1.73 5.7.7 11.86-2.82 16.6-3.43 4.84-9.02 7.66-14.94 7.73-4.67 0-45.66 1.3-45.66 33.47 0 18 10.8 28.8 28.8 28.8 39.03 0 62.32-53.3 62.32-142.5 0-134-79.5-246.9-80.33-248-5.1-7.1-4.55-16.7 1.17-23.3 3.7-4.2 8.87-6.4 14.1-6.4 3.04 0 6.07.72 8.9 2.23 2 1.1 50.56 27.55 99.4 80.67 65.04 70.7 99.5 155.46 99.5 245 0 5.25-2.2 10.2-6.03 13.8l-101.4 93.7 8.93 11.2c5.9 7.4 5.37 18-1.25 24.8l-186.9 191.3c-3.5 3.65-8.32 5.66-13.35 5.66"/><path d="M299.97 686.74l-186.84-191.2 19.84-24.86L18.73 365.14c0-207.38 189.05-309.2 189.05-309.2s-83.84 117.4-83.84 258.9c0 141.58 54.1 161.15 81.02 161.15 27.08 0 47.53-17.7 47.53-47.6 0-52.2-64.3-52.2-64.3-52.2L300 18.6l111.78 357.7s-64.27 0-64.27 52.16C347.5 458.3 368 476 395 476s81-19.6 81-161.18c0-141.5-83.78-258.9-83.78-258.9s189.05 101.82 189.05 309.2L467.03 470.68l19.84 24.87-186.9 191.2z"/></svg>