<svg xmlns="http://www.w3.org/2000/svg" viewBox="0 0 177.99999 130"><path d="M67.61 121.75c-25.6-15.296-46.206-32.296-51.144-42.196-2.9409-5.8962-3.1179-10.816-.8561-23.803 3.1305-17.975.57172-30.918-8.4798-42.893C1.9811 6.046-.0012 2.768-.0012 1.067c0-.72674 8.1942-1.0657 25.761-1.0657h25.761l6.5603 4.401 6.5603 4.401-.44317 6.1268c-.84025 11.616 4.1918 20.978 13.287 24.718l4.5069 1.8534.004 44.25c.002 24.338-.12693 44.25-.28664 44.25-.15972 0-6.5041-3.7125-14.099-8.25zM94.999 85.5c0-39.523.17333-44.5 1.5497-44.5 2.4294 0 7.6425-2.9318 11.178-6.2864 4.4044-4.1791 6.6011-11.211 6.0765-19.45l-.41732-6.554 6.7317-4.3547 6.7317-4.3548h25.575c22.651 0 25.575.18079 25.575 1.5813 0 .8697-2.7331 5.343-6.0736 9.9408-3.3405 4.5977-6.9898 10.749-8.1098 13.669-2.8471 7.4236-3.3992 19.24-1.4277 30.56 2.2199 12.747 2.0532 17.779-.78674 23.75-3.3257 6.992-15.248 18.195-31.773 29.856-7.5514 5.3286-32.792 20.644-34.022 20.644-.44368 0-.80669-20.025-.80669-44.5z"/></svg>