<?xml version="1.0" encoding="utf-8"?>
<!-- Generator: Adobe Illustrator 17.0.0, SVG Export Plug-In . SVG Version: 6.00 Build 0)  -->
<!DOCTYPE svg PUBLIC "-//W3C//DTD SVG 1.1//EN" "http://www.w3.org/Graphics/SVG/1.1/DTD/svg11.dtd">
<svg version="1.1" xmlns="http://www.w3.org/2000/svg" xmlns:xlink="http://www.w3.org/1999/xlink" x="0px" y="0px" width="300px"
	 height="300px" viewBox="0 0 300 300" enable-background="new 0 0 300 300" xml:space="preserve">
<g id="Layer_1">
	<path fill="#FFFFFF" d="M281.081,144.282c-1.206-0.767-2.354-1.498-3.501-2.203c5.81-3.787,10.535-7.525,14.453-11.407l7.967-7.894
		l-10.077-4.924c-3.636-1.777-7.122-3.079-10.652-4.162c6.375-8.244,11.073-17.317,14.711-28.21l3.942-11.806l-12.372,1.364
		c-18.583,2.049-30.604,6.78-39.38,10.235c-4.657,1.833-8.351,3.287-10.742,3.369c-0.16-0.019-1.362-0.238-3.986-2.589
		c-2.554-2.288-5.277-5.541-7.911-8.687c-1.826-2.181-3.714-4.436-5.581-6.408C193.306,44.929,167.396,39.465,150,39.465
		c-17.397,0-43.307,5.464-67.953,31.496c-1.866,1.972-3.755,4.227-5.581,6.408c-2.634,3.146-5.357,6.398-7.91,8.687
		c-2.622,2.349-3.824,2.57-3.988,2.589c-2.39-0.083-6.084-1.536-10.74-3.369c-8.778-3.455-20.797-8.186-39.38-10.235L2.074,73.677
		l3.943,11.806c3.638,10.893,8.336,19.965,14.711,28.21c-3.529,1.083-7.016,2.385-10.652,4.162L0,122.779l7.966,7.893
		c3.919,3.882,8.643,7.62,14.454,11.407c-1.147,0.705-2.294,1.435-3.5,2.202c-0.539,0.342-1.094,0.696-1.671,1.06L5.57,152.725
		l12.242,6.409c9.231,4.831,16.692,7.737,25.618,9.662c-0.323,0.455-0.65,0.922-0.984,1.404l-7.584,10.931l13.216,1.525
		c7.317,0.844,12.699,1.188,18.575,1.188c5.087,0,10.47-0.259,18.047-0.704c0.953-0.056,1.899-0.086,2.813-0.086
		c8.251,0,14.627,2.324,17.952,6.543c3.982,5.053,3.329,12.302,2.08,17.493l-0.77,3.205l26.536,43.415
		c1.218,1.993,2.542,3.714,3.939,5.178c7.73,8.102,17.77,8.102,25.5,0c1.397-1.464,2.72-3.185,3.939-5.178l26.536-43.415
		l-0.771-3.205c-1.249-5.191-1.9-12.438,2.081-17.491c3.326-4.221,9.7-6.545,17.952-6.545c0.914,0,1.86,0.029,2.813,0.086
		c7.578,0.445,12.96,0.704,18.047,0.704c5.876,0,11.257-0.344,18.574-1.188l13.217-1.525l-7.584-10.931
		c-0.334-0.482-0.662-0.949-0.985-1.404c8.925-1.926,16.388-4.831,25.618-9.662l12.241-6.409l-11.679-7.383
		C282.174,144.978,281.619,144.626,281.081,144.282z"/>
	<path d="M212.487,175.088c1.072,0,2.164,0.033,3.282,0.099c7.306,0.43,12.634,0.69,17.578,0.69c5.604,0,10.715-0.334,17.661-1.136
		c-3.311-4.773-5.698-7.745-10.341-11.574c16.327-1.717,25.297-4.534,37.825-11.092c-6.069-3.837-9.786-6.421-17.708-9.385
		c10.623-5.675,19.24-11.337,25.641-17.678c-7.059-3.449-13.66-4.94-21.817-6.868c9.488-9.254,16.678-19.795,21.817-35.185
		c-29.139,3.213-41.366,13.496-50.977,13.654c-8.152,0-16.213-12.709-23.282-20.175c-20.866-22.04-43.45-29.007-62.167-29.007
		c-18.716,0-41.302,6.967-62.168,29.007c-7.068,7.466-15.129,20.175-23.282,20.175c-9.61-0.159-21.837-10.441-50.976-13.654
		c5.139,15.39,12.329,25.931,21.816,35.185c-8.156,1.928-14.759,3.419-21.816,6.868c6.4,6.341,15.017,12.002,25.641,17.678
		c-7.922,2.964-11.639,5.548-17.708,9.385c12.527,6.558,21.498,9.375,37.824,11.092c-4.644,3.83-7.03,6.801-10.341,11.574
		c6.945,0.801,12.058,1.136,17.662,1.136c4.944,0,10.271-0.261,17.578-0.69c1.116-0.066,2.211-0.099,3.282-0.099
		c21.012,0,32.901,12.566,27.778,33.865l21.959,35.925v-83.736c-36.894-5.288-50.575-33.191-50.575-48.4
		c0-2.074,0.166-4.117,0.485-6.125c6.455-7.489,16.739-13.666,29.365-17.655c-2.244,4.576-3.501,9.685-3.501,15.077
		c0,19.59,16.555,35.47,36.976,35.47c20.42,0,36.975-15.88,36.975-35.47c0-5.392-1.257-10.501-3.5-15.077
		c12.625,3.989,22.91,10.167,29.364,17.655c0.32,2.007,0.486,4.05,0.486,6.125c0,15.209-13.683,43.111-50.575,48.4v83.736
		l21.958-35.925C179.586,187.656,191.477,175.088,212.487,175.088z"/>
</g>
<g id="Scrap" display="none">
</g>
</svg>
