<?xml version="1.0" encoding="utf-8"?>
<!-- Generator: Adobe Illustrator 17.0.0, SVG Export Plug-In . SVG Version: 6.00 Build 0)  -->
<!DOCTYPE svg PUBLIC "-//W3C//DTD SVG 1.1//EN" "http://www.w3.org/Graphics/SVG/1.1/DTD/svg11.dtd">
<svg version="1.1" id="Isolation_Mode" xmlns="http://www.w3.org/2000/svg" xmlns:xlink="http://www.w3.org/1999/xlink" x="0px"
	 y="0px" width="300px" height="412px" viewBox="0 0 300 412" enable-background="new 0 0 300 412" xml:space="preserve">
<g>
	<path fill="#FFFFFF" d="M300,80.922L171.327,0L22.492,79.575L0,239.896l47.423,29.803c0.02,27.787,1.836,56.405,8.29,82.132
		l1.012,3.982L153.787,412l92.611-70.954l-2.337-6.558c-0.224-0.438-7.78-24.429-7.365-71.385l40.862-21.867L300,80.922z"/>
	<path d="M73.423,343.181l78.906,45.666l71.519-54.758c-2.492-9.63-6.001-30.355-6.501-60.685l-88.653,47.44L66.949,281.99
		C67.474,302.989,69.047,324.056,73.423,343.181 M40.214,92.017L20.841,230.206l108.602,68.34l130.397-69.709l19.348-138.237
		L170.487,22.291L40.214,92.017"/>
	<path fill="#FFFFFF" d="M162.145,60.614c-54.063-0.025-104.175,43.95-111.74,97.994c-3.794,27.103,3.375,52.721,20.115,72.042
		c16.48,18.992,40.484,29.532,67.361,29.541c54.055-0.026,104.18-43.899,111.692-97.935c3.789-27.154-3.322-52.73-20.062-72.05
		C212.904,71.076,189.02,60.622,162.145,60.614 M223.468,158.624c-5.835,41.486-44.193,75.225-85.605,75.192
		c-19.13,0.035-35.961-7.286-47.497-20.476c-11.635-13.489-16.598-31.691-13.858-51.153c5.832-41.485,44.189-75.224,85.646-75.25
		c19.087,0.023,35.918,7.346,47.461,20.586C221.24,120.962,226.2,139.112,223.468,158.624"/>
</g>
</svg>
