<?xml version="1.0" encoding="utf-8"?>
<!-- Generator: Adobe Illustrator 17.0.0, SVG Export Plug-In . SVG Version: 6.00 Build 0)  -->
<!DOCTYPE svg PUBLIC "-//W3C//DTD SVG 1.1//EN" "http://www.w3.org/Graphics/SVG/1.1/DTD/svg11.dtd">
<svg version="1.1" id="Layer_1" xmlns="http://www.w3.org/2000/svg" xmlns:xlink="http://www.w3.org/1999/xlink" x="0px" y="0px"
	 width="300px" height="300px" viewBox="0 0 300 300" enable-background="new 0 0 300 300" xml:space="preserve">
<g>
	<path fill="#FFFFFF" d="M264.346,50.887C242.656,24.714,212.453,6.641,179.303,0l-15.308,6.635l7.393,11.801
		c9.92,6.982,15.843,18.37,15.843,30.464c0,9.946-3.873,19.295-10.905,26.327C169.295,82.26,159.944,86.133,150,86.133
		c-9.945,0-19.295-3.873-26.327-10.905c-7.032-7.032-10.905-16.382-10.905-26.327c0-12.094,5.923-23.483,15.843-30.464l7.393-11.801
		L120.697,0C87.546,6.641,57.344,24.714,35.654,50.887C13.673,77.414,1.567,111.026,1.567,145.532v0.082l0.001,0.037l10.792,13.763
		l8.554-9.095c6.447-12.383,19.107-20.075,33.039-20.074c20.53,0.001,37.232,16.703,37.232,37.232
		c0,10.815-4.707,21.085-12.913,28.176l-7.513,6.493l6.249,7.717l65.025,80.3L150,300l7.967-9.839l65.025-80.3l6.25-7.717
		l-7.513-6.493c-8.207-7.091-12.913-17.361-12.913-28.176c0-20.529,16.702-37.231,37.232-37.232
		c13.931-0.001,26.592,7.692,33.039,20.074l8.553,9.095l10.792-13.763l0.001-0.037v-0.082
		C298.433,111.026,286.327,77.414,264.346,50.887z"/>
	<path d="M246.048,117.834c-27.374,0.001-49.643,22.27-49.643,49.642c0,13.726,5.68,26.79,15.654,36.165L150,280.28l-62.06-76.639
		c9.974-9.375,15.655-22.439,15.655-36.165c0-27.372-22.27-49.642-49.644-49.642c-15.851,0-30.465,7.464-39.75,19.907
		C17.548,79.392,58.255,29.337,114.536,14.185c-8.998,9.202-14.178,21.649-14.178,34.716c0,13.261,5.164,25.727,14.54,35.103
		c9.376,9.376,21.842,14.54,35.102,14.539c13.26,0.001,25.726-5.163,35.102-14.539c9.376-9.376,14.54-21.842,14.54-35.103
		c0-13.067-5.181-25.514-14.179-34.716c56.282,15.152,96.988,65.207,100.335,123.556C276.514,125.297,261.9,117.834,246.048,117.834
		z"/>
</g>
</svg>
