<?xml version="1.0" encoding="UTF-8" standalone="no"?>
<!-- Created with Inkscape (http://www.inkscape.org/) -->

<svg
   xmlns:dc="http://purl.org/dc/elements/1.1/"
   xmlns:cc="http://creativecommons.org/ns#"
   xmlns:rdf="http://www.w3.org/1999/02/22-rdf-syntax-ns#"
   xmlns:svg="http://www.w3.org/2000/svg"
   xmlns="http://www.w3.org/2000/svg"
   xmlns:inkscape="http://www.inkscape.org/namespaces/inkscape"
   version="1.1"
   width="600"
   height="1069.5787"
   id="svg3309">
  <defs
     id="defs3311">
    <clipPath
       id="clipPath3532">
      <path
         d="M 0,300 163,300 163,0 0,0 0,300 z"
         inkscape:connector-curvature="0"
         id="path3534" />
    </clipPath>
    <clipPath
       id="clipPath3544">
      <path
         d="M 0,300 163,300 163,0 0,0 0,300 z"
         inkscape:connector-curvature="0"
         id="path3546" />
    </clipPath>
  </defs>
  <metadata
     id="metadata3314">
    <rdf:RDF>
      <cc:Work
         rdf:about="">
        <dc:format>image/svg+xml</dc:format>
        <dc:type
           rdf:resource="http://purl.org/dc/dcmitype/StillImage" />
        <dc:title />
      </cc:Work>
    </rdf:RDF>
  </metadata>
  <g
     transform="translate(-109.55385,347.04011)"
     id="layer1">
    <g
       transform="matrix(3.6809929,0,0,-3.6809929,-900.60484,1793.0804)"
       id="g3494">
      <g
         id="g3528">
        <g
           clip-path="url(#clipPath3532)"
           id="g3530">
          <g
             transform="translate(272.3291,0)"
             id="g3536">
            <path
               d="m 0,0 c 0,0 115.146,80.629 78.454,254.6 0,0 -55.216,-4.719 -78.092,45.4 C -22.526,249.881 -78.093,254.6 -78.093,254.6 -114.784,80.629 0,0 0,0"
               inkscape:connector-curvature="0"
               id="path3538"
               style="fill:#ffffff;fill-opacity:1;fill-rule:nonzero;stroke:none" />
          </g>
        </g>
      </g>
      <g
         transform="translate(274.4256,286.11342)"
         clip-path="url(#clipPath3544)"
         id="g3542">
        <g
           transform="translate(81.6865,295.2842)"
           id="g3548">
          <path
             d="m 0,0 c -4.722,0 -12.347,-0.366 -15.612,-4.361 l -11.985,0.366 0,-25.063 3.637,0 c -3.275,-11.624 -2.541,-24.694 -0.361,-36.323 l -36.309,0 -21.057,-21.069 0,-48.665 26.501,26.524 14.519,0 8.359,-112.595 32.308,-69.382 32.31,69.382 8.348,112.595 14.515,0 26.14,-26.524 0,49.037 -20.333,20.697 -36.66,0 c 2.172,11.629 2.906,24.699 -0.37,36.323 l 3.276,0 0,25.063 -11.625,-0.729 C 12.335,-0.366 5.072,0 0,0"
             inkscape:connector-curvature="0"
             id="path3550"
             style="fill:#ffffff;fill-opacity:1;fill-rule:nonzero;stroke:none" />
        </g>
        <g
           transform="translate(81.6865,22.1563)"
           id="g3552">
          <path
             d="m 0,0 -26.863,57.751 -8.72,112.595 -23.23,0 -15.61,-17.439 0,31.962 17.42,17.439 38.849,0 c 0,0 -6.902,26.143 1.446,44.305 l -5.445,0 0,14.892 10.166,0 c 0,0 -2.179,3.995 11.987,3.995 14.153,0 11.613,-3.995 11.613,-3.995 l 10.166,0 0,-14.892 -5.083,0 c 8.35,-18.162 1.084,-44.305 1.084,-44.305 l 39.212,0 17.419,-17.439 0,-31.238 -15.973,16.715 -23.226,0 L 26.865,57.751 0,0 z m -4,212.109 c -2.541,0 -4.359,-1.814 -4.359,-3.993 0,-2.543 1.818,-4.362 4.359,-4.362 l 7.987,0 c 2.543,0 4.361,1.819 4.361,4.362 0,2.179 -1.818,3.993 -4.361,3.993 l -7.987,0 z M -17.07,133.296 -12.709,66.467 0,38.856 12.697,66.467 17.057,133.296 0,117.678 -17.07,133.296 z m 0.362,32.326 0,-13.076 L 0,138.013 l 16.696,14.533 0,13.076 -33.404,0 z M -4,243.709 c -2.541,0 -4.359,-1.82 -4.359,-3.996 0,-2.181 1.818,-4.357 4.359,-4.357 l 7.987,0 c 2.543,0 4.361,2.176 4.361,4.357 0,2.176 -1.818,3.996 -4.361,3.996 l -7.987,0 z m 4.361,-66.469 14.515,0 0,6.172 37.756,0 11.623,-11.619 0,9.447 -11.623,11.619 -44.647,0 c -0.371,-1.447 -2.179,-2.543 -3.998,-2.543 l -7.987,0 c -1.818,0 -3.626,1.096 -3.987,2.543 l -44.658,0 -11.612,-10.894 0,-9.811 11.975,11.258 36.67,0 0,-6.172 15.973,0 z m -14.888,79.545 0,-4.724 6.901,0 c 0.723,1.09 2.181,1.814 3.626,1.814 l 8.349,0 c 1.095,0 2.542,-0.724 3.265,-1.814 l 6.901,0 0,4.724 -29.042,0 z M -4,228.451 c -2.541,0 -4.359,-1.813 -4.359,-4.356 0,-2.176 1.818,-3.996 4.359,-3.996 l 7.987,0 c 2.543,0 4.361,1.82 4.361,3.996 0,2.543 -1.818,4.356 -4.361,4.356 l -7.987,0 z"
             inkscape:connector-curvature="0"
             id="path3554"
             style="fill:#000000;fill-opacity:1;fill-rule:nonzero;stroke:none" />
        </g>
      </g>
    </g>
  </g>
</svg>
